<svg class="m-auto  xs:h-[35px] xl:h-[58px] w-full" xmlns="http://www.w3.org/2000/svg" width="33" height="30" viewBox="0 0 33 30" fill="none"><path d="M27.2858 27.1595C30.5328 23.9074 32.3184 19.5901 32.3184 14.9949C32.3184 10.3997 30.5276 6.07205 27.2806 2.82505C27.1571 2.69641 26.9822 2.62951 26.8124 2.62951C26.6426 2.62951 26.4625 2.69641 26.3338 2.8302C26.3338 2.8302 26.3338 2.8302 26.3287 2.83534L25.2378 3.92625C22.4745 1.39452 18.8776 1.17776e-05 15.1263 1.17776e-05C6.84668 -0.0102798 0.11084 6.72556 0.11084 14.9949C0.11084 23.2641 6.84154 30 15.116 30C18.8776 30 22.4642 28.6055 25.2275 26.0738L26.3235 27.1698C26.447 27.2882 26.6117 27.3705 26.8021 27.3705C26.977 27.3705 27.152 27.3036 27.2806 27.1698L27.2858 27.1595ZM15.116 28.6364C7.59797 28.6364 1.46933 22.518 1.46933 14.9897C1.46933 7.46141 7.58768 1.34306 15.116 1.34306C18.4916 1.34306 21.7386 2.60378 24.2601 4.88337L22.104 7.03431C20.164 5.32591 17.6889 4.37908 15.116 4.37908C9.27035 4.37908 4.51564 9.1338 4.51564 14.9794C4.51564 20.825 9.27035 25.5798 15.116 25.5798C17.6786 25.5798 20.1589 24.6381 22.104 22.9245L24.2652 25.0858C21.7489 27.3705 18.5019 28.6312 15.116 28.6312V28.6364ZM21.718 21.4477L21.6563 21.5094H21.6511C19.9016 23.2487 17.5962 24.2058 15.1417 24.2058C10.0474 24.2058 5.89986 20.0635 5.89986 14.9691C5.89986 9.87479 10.0474 5.72728 15.1417 5.72728C20.236 5.72728 24.3681 9.89538 24.3681 14.9897C24.3681 17.4237 23.4264 19.7136 21.7283 21.4477H21.718ZM23.0765 21.9828C24.7849 20.0429 25.7266 17.5678 25.7266 14.9949C25.7266 12.422 24.7849 9.95198 23.0765 8.00687L26.8021 4.27617C29.4882 7.20412 30.9702 11.0069 30.9702 14.9846C30.9702 18.9623 29.4882 22.7804 26.8021 25.7084L23.0714 21.9777L23.0765 21.9828Z" fill="#4CC2F1"></path><path d="M15.5637 9.69984L15.4196 9.8645H15.4247L15.5585 9.69984C15.4453 9.60207 15.2858 9.53002 15.1211 9.53002C14.9153 9.53002 14.7352 9.62265 14.6117 9.76673C14.3647 10.0549 14.4007 10.482 14.6786 10.729L14.8124 10.5798L14.8021 10.5901L14.6786 10.729C15.2755 11.2384 15.5894 11.9074 15.5894 12.6124C15.5894 13.3173 15.2704 13.9708 14.6786 14.4854C13.7832 15.247 13.2892 16.2865 13.2892 17.3979C13.2892 18.5094 13.7832 19.5386 14.6786 20.3002C14.7918 20.3928 14.9513 20.4648 15.116 20.4648C15.3218 20.4648 15.5019 20.3722 15.6254 20.2281C15.8776 19.94 15.8415 19.5129 15.5585 19.2659C14.9616 18.7513 14.6477 18.0875 14.6477 17.3928C14.6477 16.6981 14.9668 16.0343 15.5585 15.5094C16.4487 14.7479 16.9427 13.7084 16.9427 12.6072C16.9427 11.506 16.4384 10.4563 15.5534 9.69469L15.5637 9.69984ZM15.4196 15.3499L15.4247 15.3602V15.3499H15.4196Z" fill="#4CC2F1"></path><path d="M19.8861 9.69984C19.7729 9.60207 19.6134 9.53002 19.4487 9.53002C19.2429 9.53002 19.0577 9.62265 18.9342 9.76673C18.6872 10.0549 18.7232 10.482 19.0011 10.729L19.14 10.5746L19.1297 10.5901L19.0062 10.729C19.6031 11.2384 19.917 11.9074 19.917 12.6124C19.917 13.3173 19.598 13.9708 19.0062 14.4854C18.1108 15.247 17.6168 16.2865 17.6168 17.3979C17.6168 18.5094 18.1108 19.5386 19.0062 20.3002C19.1194 20.3979 19.2738 20.47 19.4436 20.47C19.6494 20.47 19.8295 20.3774 19.953 20.2333C20.2052 19.9451 20.1691 19.518 19.8861 19.271L19.7472 19.4357L19.8913 19.271C19.2944 18.7616 18.9805 18.0926 18.9805 17.4031C18.9805 16.7136 19.2995 16.0446 19.8964 15.5197C20.7866 14.7582 21.2806 13.7187 21.2806 12.6175C21.2806 11.5163 20.7764 10.4666 19.8964 9.70498L19.8861 9.69984ZM19.7884 20.0841L19.7987 20.0892H19.7884V20.0841Z" fill="#4CC2F1"></path><path d="M11.2463 9.69984L11.1023 9.8645L11.1125 9.85421L11.2463 9.69984C11.1331 9.60207 10.9736 9.53002 10.8089 9.53002C10.6031 9.53002 10.4179 9.62265 10.2944 9.76673C10.0474 10.0549 10.0834 10.482 10.3613 10.729L10.4951 10.5798L10.4796 10.5952L10.3613 10.729C10.9582 11.2384 11.2721 11.9074 11.2721 12.6124C11.2721 13.3173 10.953 13.9708 10.3613 14.4854C9.4659 15.247 8.97705 16.2865 8.97705 17.3979C8.97705 18.5094 9.47104 19.5386 10.3664 20.3002C10.4796 20.3979 10.6391 20.47 10.8038 20.47C11.0096 20.47 11.1897 20.3774 11.3132 20.2333C11.5602 19.9451 11.5242 19.518 11.2463 19.271C10.6494 18.7564 10.3355 18.0926 10.3355 17.3979C10.3355 16.7033 10.6546 16.0395 11.2515 15.5146C12.1417 14.753 12.6357 13.7136 12.6357 12.6124C12.6357 11.5112 12.1314 10.4614 11.2515 9.69984H11.2463Z" fill="#4CC2F1"></path></svg>